<svg id="Layer_1" data-name="Layer 1" xmlns="http://www.w3.org/2000/svg" viewBox="0 0 32 32"><defs><style>.cls-1{fill-rule:evenodd;}</style></defs><title>celebrate</title><path class="cls-1" d="M10.42,13.25a.49.49,0,0,0-.44.28L2.55,28.74a.5.5,0,0,0,.24.67.54.54,0,0,0,.43,0L18.43,22a.5.5,0,0,0,.23-.67.42.42,0,0,0-.09-.14l-7.79-7.78A.47.47,0,0,0,10.42,13.25Zm.15,1.35,6.79,6.79L4.09,27.87Z"/><path class="cls-1" d="M14.71,18.52v4.25h1V18.52Z"/><path class="cls-1" d="M12.58,16.4v7.43h1V16.4Z"/><path class="cls-1" d="M10.46,14.28V24.89h1V14.28Z"/><path class="cls-1" d="M8.34,17.11V26h1V17.11Z"/><path class="cls-1" d="M6.22,21.35V27h1V21.35Z"/><path class="cls-1" d="M22.79,8.65a.53.53,0,0,0-.34.15l-6.71,6.72a.5.5,0,1,0,.69.71h0l6.71-6.71a.5.5,0,0,0,0-.71A.51.51,0,0,0,22.79,8.65Z"/><path class="cls-1" d="M21.57,15.35a6,6,0,0,0-4.24,1.75.5.5,0,1,0,.7.72h0a5,5,0,0,1,7.07,0l.35.35a.5.5,0,0,0,.71,0,.51.51,0,0,0,0-.71h0l-.35-.35a6,6,0,0,0-4.25-1.75Z"/><path class="cls-1" d="M18.21,6.88a.5.5,0,0,0-.5.5.55.55,0,0,0,.15.36l.12.11A1.28,1.28,0,0,1,18,9.67a.5.5,0,0,0,.7.72h0a2.3,2.3,0,0,0-.06-3.23L18.57,7a.48.48,0,0,0-.36-.15Z"/><path class="cls-1" d="M23.19,12.57a2.2,2.2,0,0,0-1.61.64.5.5,0,0,0,.69.72h0A1.28,1.28,0,0,1,24.1,14l.12.12a.51.51,0,0,0,.71,0,.5.5,0,0,0,0-.71h0l-.12-.12a2.39,2.39,0,0,0-1.62-.7Z"/><path class="cls-1" d="M20.29,18.25a3,3,0,0,0-1.25.36.5.5,0,1,0,.47.88h0a2.58,2.58,0,0,1,3.31,1.12l.14.23a.51.51,0,0,0,.69.17.5.5,0,0,0,.17-.69h0l-.14-.24A3.75,3.75,0,0,0,20.29,18.25Z"/><path class="cls-1" d="M11.36,8.06a.5.5,0,0,0-.24.93l.23.14a2.59,2.59,0,0,1,1.12,3.31.5.5,0,0,0,.2.68.51.51,0,0,0,.68-.2h0a3.58,3.58,0,0,0-1.47-4.65l-.24-.14a.45.45,0,0,0-.28-.07Z"/><path class="cls-1" d="M25.27,6.17a.53.53,0,0,0-.34.15l-.73.73a.5.5,0,0,0,0,.71.5.5,0,0,0,.71,0h0L25.63,7a.5.5,0,0,0-.36-.86Z"/><path class="cls-1" d="M24.54,6.91a.5.5,0,0,0-.22,1l.93.47a.49.49,0,0,0,.67-.21.5.5,0,0,0-.22-.68L24.78,7a.53.53,0,0,0-.24-.06Z"/><path class="cls-1" d="M24.57,6.91a.51.51,0,0,0-.52.43l-.16,1a.5.5,0,1,0,1,.16h0l.16-1a.49.49,0,0,0-.41-.57Z"/><path class="cls-1" d="M24.55,6.91h-.09l-1,.16a.5.5,0,1,0,.15,1h0l1-.16a.5.5,0,0,0-.07-1Z"/><path class="cls-1" d="M24.07,6a.49.49,0,0,0-.5.49.5.5,0,0,0,.06.24l.47.93a.5.5,0,0,0,.67.21A.49.49,0,0,0,25,7.18l-.47-.92A.51.51,0,0,0,24.07,6Z"/><path class="cls-1" d="M14.14,5.64a.49.49,0,0,0-.49.5.48.48,0,0,0,.15.36l.34.35a5,5,0,0,1,0,7.07.49.49,0,0,0,0,.7.5.5,0,0,0,.71,0l0,0a6,6,0,0,0,0-8.48l-.35-.35a.51.51,0,0,0-.36-.15Z"/><path class="cls-1" d="M12.71,2.81a.53.53,0,0,0-.34.15l-.73.73a.5.5,0,0,0,.69.73l0,0,.73-.73a.5.5,0,0,0,0-.71.54.54,0,0,0-.38-.15Z"/><path class="cls-1" d="M12,3.55a.49.49,0,0,0-.49.5.5.5,0,0,0,.28.45l.92.47a.49.49,0,0,0,.67-.22.5.5,0,0,0-.21-.67l-.93-.47A.48.48,0,0,0,12,3.55Z"/><path class="cls-1" d="M12,3.55A.49.49,0,0,0,11.5,4l-.17,1a.52.52,0,0,0,.42.58.51.51,0,0,0,.57-.42h0l.16-1a.48.48,0,0,0-.41-.57Z"/><path class="cls-1" d="M12,3.55h-.08l-1,.16a.5.5,0,0,0,.15,1h0l1-.16A.51.51,0,0,0,12.5,4,.52.52,0,0,0,12,3.55Z"/><path class="cls-1" d="M11.52,2.61a.5.5,0,0,0-.51.5.53.53,0,0,0,.06.24l.47.92a.5.5,0,1,0,.89-.45h0L12,2.89A.55.55,0,0,0,11.52,2.61Z"/><path class="cls-1" d="M28.63,18.73a.49.49,0,0,0-.34.15l-.73.73a.5.5,0,0,0,.71.71l.73-.73a.5.5,0,0,0,0-.71A.5.5,0,0,0,28.63,18.73Z"/><path class="cls-1" d="M27.44,18.53a.5.5,0,0,0-.51.5.53.53,0,0,0,.06.24l.47.92a.5.5,0,0,0,.66.26.51.51,0,0,0,.26-.66l0-.05-.47-.93A.53.53,0,0,0,27.44,18.53Z"/><path class="cls-1" d="M27.91,19.47h-.08l-1,.16a.5.5,0,0,0-.43.56.51.51,0,0,0,.57.43h0l1-.16a.5.5,0,0,0-.07-1Z"/><path class="cls-1" d="M27.88,19.47a.49.49,0,0,0-.47.43l-.16,1a.51.51,0,0,0,.41.58.51.51,0,0,0,.58-.41v0l.16-1a.51.51,0,0,0-.41-.58Z"/><path class="cls-1" d="M27.9,19.47a.5.5,0,0,0-.5.5.51.51,0,0,0,.28.45l.93.47a.5.5,0,0,0,.67-.22.5.5,0,0,0-.22-.67l-.92-.47a.5.5,0,0,0-.24-.06Z"/><path class="cls-1" d="M25.65,14.6a.5.5,0,0,0,0,.71h0a.48.48,0,0,0,.7,0h0a.5.5,0,0,0,0-.71h0a.5.5,0,0,0-.7,0Z"/><path class="cls-1" d="M16.65,5.6a.5.5,0,0,0,0,.71.48.48,0,0,0,.7,0h0a.5.5,0,0,0,0-.71.5.5,0,0,0-.7,0Z"/><path class="cls-1" d="M23.65,21.6a.5.5,0,0,0,0,.71h0a.48.48,0,0,0,.7,0h0a.5.5,0,0,0,0-.71h0a.5.5,0,0,0-.7,0Z"/><path class="cls-1" d="M9.65,7.6a.5.5,0,0,0,0,.71h0a.48.48,0,0,0,.7,0h0a.5.5,0,0,0,0-.71h0a.5.5,0,0,0-.7,0Z"/><path class="cls-1" d="M25.15,10.6a.5.5,0,0,0,0,.71h0a.48.48,0,0,0,.7,0h0a.5.5,0,0,0,0-.71h0a.5.5,0,0,0-.7,0Z"/><path class="cls-1" d="M20.65,6.1a.5.5,0,0,0,0,.71h0a.48.48,0,0,0,.7,0h0a.5.5,0,0,0,0-.71h0a.5.5,0,0,0-.7,0Z"/><path class="cls-1" d="M28.65,16.1a.5.5,0,0,0,0,.71h0a.5.5,0,0,0,.71,0,.51.51,0,0,0,0-.71h0A.51.51,0,0,0,28.65,16.1Z"/><path class="cls-1" d="M15.65,2.6a.5.5,0,0,0,0,.71h0a.48.48,0,0,0,.7,0h0a.5.5,0,0,0,0-.71h0a.5.5,0,0,0-.7,0Z"/></svg>