<svg id="Layer_1" data-name="Layer 1" xmlns="http://www.w3.org/2000/svg" viewBox="0 0 188 125"><defs><style>.cls-1{fill:#ccc;}.cls-2{opacity:0.32;}.cls-3{fill:#e6e6e6;}.cls-4{fill:#fff;}</style></defs><title>placeholder</title><rect class="cls-1" width="188" height="125"/><g class="cls-2"><path class="cls-3" d="M52.57,49.25c2.67,0,3.75,1.14,3.75,3.6s-1.08,3.6-3.75,3.6h-.72a.41.41,0,0,0-.45.45v2.4a.4.4,0,0,1-.45.45H49.27a.42.42,0,0,1-.45-.45V49.72a.42.42,0,0,1,.45-.47Zm.09,4.62c.72,0,1.08-.09,1.08-1s-.36-1-1.08-1h-.81a.41.41,0,0,0-.45.45v1.14a.41.41,0,0,0,.45.45Z"/><path class="cls-3" d="M59.38,49.25a.4.4,0,0,1,.45.45v7a.42.42,0,0,0,.45.45h3.35a.4.4,0,0,1,.45.45V59.3a.4.4,0,0,1-.45.45H57.7a.42.42,0,0,1-.45-.45V49.7a.41.41,0,0,1,.45-.45Z"/><path class="cls-3" d="M72.28,59.24c0,.33-.15.51-.45.51H70.15a.41.41,0,0,1-.45-.45V58a.4.4,0,0,0-.45-.46H68a.41.41,0,0,0-.45.46v1.3a.4.4,0,0,1-.45.45H65.38c-.28,0-.45-.18-.45-.51V52.88c0-1.89.3-3.9,3.68-3.9s3.67,2,3.67,3.9ZM69.7,52.88c0-.72-.1-1.08-1.09-1.08s-1.1.36-1.1,1.08v1.64A.42.42,0,0,0,68,55h1.29a.42.42,0,0,0,.45-.47Z"/><path class="cls-3" d="M73.56,52.63c0-1,.21-3.65,3.76-3.65,3.2,0,3.69,2.15,3.75,3.3a.39.39,0,0,1-.33.42l-1.66.38a.5.5,0,0,1-.6-.47,1,1,0,0,0-1.16-1c-1.11,0-1.18.71-1.18,1.86v2.16c0,1.16.07,1.86,1.18,1.86.83,0,1.05-.39,1.14-1.08a.47.47,0,0,1,.59-.43l1.69.37a.4.4,0,0,1,.33.44C81,57.88,80.52,60,77.32,60c-3.55,0-3.76-2.65-3.76-3.64Z"/><path class="cls-3" d="M88.86,49.25a.4.4,0,0,1,.45.45v1.68a.4.4,0,0,1-.45.45H85.23a.4.4,0,0,0-.45.45v.48a.41.41,0,0,0,.45.45h2.32a.4.4,0,0,1,.45.45v1.68a.4.4,0,0,1-.45.45H85.23a.4.4,0,0,0-.45.45v.48a.41.41,0,0,0,.45.45h3.63a.4.4,0,0,1,.45.45V59.3a.4.4,0,0,1-.45.45h-6.3a.41.41,0,0,1-.45-.45V49.7a.4.4,0,0,1,.45-.45Z"/><path class="cls-3" d="M92.59,49.25a.41.41,0,0,1,.45.45v3.75a.41.41,0,0,0,.45.45h1.44a.4.4,0,0,0,.45-.45V49.7a.42.42,0,0,1,.45-.45h1.68a.4.4,0,0,1,.45.45v9.6a.41.41,0,0,1-.45.45H95.83a.42.42,0,0,1-.45-.45V56.93a.4.4,0,0,0-.45-.45H93.49a.41.41,0,0,0-.45.45V59.3a.41.41,0,0,1-.45.45H90.91a.42.42,0,0,1-.45-.45V49.7a.4.4,0,0,1,.45-.45Z"/><path class="cls-3" d="M106.84,56.38c0,1-.21,3.64-3.76,3.64s-3.77-2.65-3.77-3.64V52.63c0-1,.21-3.65,3.77-3.65s3.76,2.66,3.76,3.65Zm-2.58-3c0-1.15-.07-1.86-1.18-1.86s-1.19.71-1.19,1.86v2.16c0,1.16.08,1.86,1.19,1.86s1.18-.7,1.18-1.86Z"/><path class="cls-3" d="M110.32,49.25a.4.4,0,0,1,.45.45v7a.42.42,0,0,0,.45.45h3.35a.4.4,0,0,1,.45.45V59.3a.4.4,0,0,1-.45.45h-5.93a.42.42,0,0,1-.45-.45V49.7a.41.41,0,0,1,.45-.45Z"/><path class="cls-3" d="M119.74,49.25c2.82,0,3.75,1.14,3.75,3.6v3.29c0,2.46-.93,3.61-3.75,3.61H116.4a.41.41,0,0,1-.45-.45V49.72a.42.42,0,0,1,.45-.47Zm.05,7.92c.72,0,1.08-.12,1.08-1v-3.3c0-.93-.36-1-1.08-1H119a.4.4,0,0,0-.45.45v4.44a.41.41,0,0,0,.45.45Z"/><path class="cls-3" d="M131.59,49.25a.4.4,0,0,1,.45.45v1.68a.4.4,0,0,1-.45.45H128a.41.41,0,0,0-.45.45v.48a.41.41,0,0,0,.45.45h2.33a.4.4,0,0,1,.45.45v1.68a.4.4,0,0,1-.45.45H128a.41.41,0,0,0-.45.45v.48a.42.42,0,0,0,.45.45h3.63a.4.4,0,0,1,.45.45V59.3a.4.4,0,0,1-.45.45h-6.3a.42.42,0,0,1-.45-.45V49.7a.41.41,0,0,1,.45-.45Z"/><path class="cls-3" d="M141.1,58.94a.53.53,0,0,1-.49.81H138.9a.38.38,0,0,1-.35-.21l-1.56-3a.15.15,0,0,0-.12-.07h-.6a.45.45,0,0,0-.46.47v2.37a.45.45,0,0,1-.47.46h-1.68a.44.44,0,0,1-.46-.46V49.72a.45.45,0,0,1,.46-.47H137c2.67,0,3.75,1.14,3.75,3.6a3.35,3.35,0,0,1-1.14,2.94.16.16,0,0,0-.05.2Zm-4.83-7.11a.45.45,0,0,0-.46.47v1.11a.44.44,0,0,0,.46.46H137c.72,0,1.08-.09,1.08-1s-.36-1-1.08-1Z"/><path class="cls-3" d="M76.72,67.25a.4.4,0,0,1,.45.45v9.6a.41.41,0,0,1-.45.45H75.06a.41.41,0,0,1-.44-.45V67.7a.4.4,0,0,1,.44-.45Z"/><path class="cls-3" d="M82.22,67.25a.46.46,0,0,1,.48.41L83.76,72c0,.15.15.15.18,0L85,67.66a.46.46,0,0,1,.48-.41h3.1a.4.4,0,0,1,.45.45v9.6a.41.41,0,0,1-.45.45H86.91a.42.42,0,0,1-.45-.45V71.39c0-.1-.13-.12-.16,0l-1.46,6a.45.45,0,0,1-.49.39h-1a.46.46,0,0,1-.5-.39l-1.45-6c0-.11-.16-.09-.16,0V77.3a.41.41,0,0,1-.46.45H79.11a.4.4,0,0,1-.44-.45V67.7c0-.3.14-.45.44-.45Z"/><path class="cls-3" d="M97.82,77.24c0,.33-.15.51-.45.51H95.69a.4.4,0,0,1-.45-.45V76a.4.4,0,0,0-.45-.46H93.5a.41.41,0,0,0-.45.46v1.3a.4.4,0,0,1-.45.45H90.92c-.29,0-.45-.18-.45-.51V70.88c0-1.89.3-3.9,3.67-3.9s3.68,2,3.68,3.9Zm-2.58-6.36c0-.72-.11-1.08-1.1-1.08s-1.09.36-1.09,1.08v1.64a.41.41,0,0,0,.45.45h1.29a.42.42,0,0,0,.45-.47Z"/><path class="cls-3" d="M99.09,70.63c0-1,.21-3.65,3.77-3.65,3.15,0,3.67,2.07,3.75,3.24a.45.45,0,0,1-.39.5l-1.7.37c-.3.06-.46-.07-.49-.39-.06-.72-.32-1.14-1.17-1.14-1.11,0-1.19.71-1.19,1.86v2.16c0,1.16.08,1.86,1.19,1.86S104,74.74,104,74h-.87a.42.42,0,0,1-.45-.45v-1.2a.41.41,0,0,1,.45-.45h3a.4.4,0,0,1,.45.45v2c0,1-.21,3.64-3.76,3.64s-3.77-2.65-3.77-3.64Z"/><path class="cls-3" d="M114.69,67.25a.4.4,0,0,1,.45.45v1.68a.4.4,0,0,1-.45.45h-3.63a.41.41,0,0,0-.45.45v.48a.41.41,0,0,0,.45.45h2.33a.4.4,0,0,1,.45.45v1.68a.4.4,0,0,1-.45.45h-2.33a.41.41,0,0,0-.45.45v.48a.42.42,0,0,0,.45.45h3.63a.4.4,0,0,1,.45.45V77.3a.4.4,0,0,1-.45.45h-6.3a.42.42,0,0,1-.45-.45V67.7a.41.41,0,0,1,.45-.45Z"/></g><path class="cls-4" d="M51.57,48.25c2.67,0,3.75,1.14,3.75,3.6s-1.08,3.6-3.75,3.6h-.72a.41.41,0,0,0-.45.45v2.4a.4.4,0,0,1-.45.45H48.27a.42.42,0,0,1-.45-.45V48.72a.42.42,0,0,1,.45-.47Zm.09,4.62c.72,0,1.08-.09,1.08-1s-.36-1-1.08-1h-.81a.41.41,0,0,0-.45.45v1.14a.41.41,0,0,0,.45.45Z"/><path class="cls-4" d="M58.38,48.25a.4.4,0,0,1,.45.45v7a.42.42,0,0,0,.45.45h3.35a.4.4,0,0,1,.45.45V58.3a.4.4,0,0,1-.45.45H56.7a.42.42,0,0,1-.45-.45V48.7a.41.41,0,0,1,.45-.45Z"/><path class="cls-4" d="M71.28,58.24c0,.33-.15.51-.45.51H69.15a.41.41,0,0,1-.45-.45V57a.4.4,0,0,0-.45-.46H67a.41.41,0,0,0-.45.46v1.3a.4.4,0,0,1-.45.45H64.38c-.28,0-.45-.18-.45-.51V51.88c0-1.89.3-3.9,3.68-3.9s3.67,2,3.67,3.9ZM68.7,51.88c0-.72-.1-1.08-1.09-1.08s-1.1.36-1.1,1.08v1.64A.42.42,0,0,0,67,54h1.29a.42.42,0,0,0,.45-.47Z"/><path class="cls-4" d="M72.56,51.63c0-1,.21-3.65,3.76-3.65,3.2,0,3.69,2.15,3.75,3.3a.39.39,0,0,1-.33.42l-1.66.38a.5.5,0,0,1-.6-.47,1,1,0,0,0-1.16-1c-1.11,0-1.18.71-1.18,1.86v2.16c0,1.16.07,1.86,1.18,1.86.83,0,1.05-.39,1.14-1.08a.47.47,0,0,1,.59-.43l1.69.37a.4.4,0,0,1,.33.44C80,56.88,79.52,59,76.32,59c-3.55,0-3.76-2.65-3.76-3.64Z"/><path class="cls-4" d="M87.86,48.25a.4.4,0,0,1,.45.45v1.68a.4.4,0,0,1-.45.45H84.23a.4.4,0,0,0-.45.45v.48a.41.41,0,0,0,.45.45h2.32a.4.4,0,0,1,.45.45v1.68a.4.4,0,0,1-.45.45H84.23a.4.4,0,0,0-.45.45v.48a.41.41,0,0,0,.45.45h3.63a.4.4,0,0,1,.45.45V58.3a.4.4,0,0,1-.45.45h-6.3a.41.41,0,0,1-.45-.45V48.7a.4.4,0,0,1,.45-.45Z"/><path class="cls-4" d="M91.59,48.25a.41.41,0,0,1,.45.45v3.75a.41.41,0,0,0,.45.45h1.44a.4.4,0,0,0,.45-.45V48.7a.42.42,0,0,1,.45-.45h1.68a.4.4,0,0,1,.45.45v9.6a.41.41,0,0,1-.45.45H94.83a.42.42,0,0,1-.45-.45V55.93a.4.4,0,0,0-.45-.45H92.49a.41.41,0,0,0-.45.45V58.3a.41.41,0,0,1-.45.45H89.91a.42.42,0,0,1-.45-.45V48.7a.4.4,0,0,1,.45-.45Z"/><path class="cls-4" d="M105.84,55.38c0,1-.21,3.64-3.76,3.64s-3.77-2.65-3.77-3.64V51.63c0-1,.21-3.65,3.77-3.65s3.76,2.66,3.76,3.65Zm-2.58-3c0-1.15-.07-1.86-1.18-1.86s-1.19.71-1.19,1.86v2.16c0,1.16.08,1.86,1.19,1.86s1.18-.7,1.18-1.86Z"/><path class="cls-4" d="M109.32,48.25a.4.4,0,0,1,.45.45v7a.42.42,0,0,0,.45.45h3.35a.4.4,0,0,1,.45.45V58.3a.4.4,0,0,1-.45.45h-5.93a.42.42,0,0,1-.45-.45V48.7a.41.41,0,0,1,.45-.45Z"/><path class="cls-4" d="M118.74,48.25c2.82,0,3.75,1.14,3.75,3.6v3.29c0,2.46-.93,3.61-3.75,3.61H115.4a.41.41,0,0,1-.45-.45V48.72a.42.42,0,0,1,.45-.47Zm.05,7.92c.72,0,1.08-.12,1.08-1v-3.3c0-.93-.36-1-1.08-1H118a.4.4,0,0,0-.45.45v4.44a.41.41,0,0,0,.45.45Z"/><path class="cls-4" d="M130.59,48.25a.4.4,0,0,1,.45.45v1.68a.4.4,0,0,1-.45.45H127a.41.41,0,0,0-.45.45v.48a.41.41,0,0,0,.45.45h2.33a.4.4,0,0,1,.45.45v1.68a.4.4,0,0,1-.45.45H127a.41.41,0,0,0-.45.45v.48a.42.42,0,0,0,.45.45h3.63a.4.4,0,0,1,.45.45V58.3a.4.4,0,0,1-.45.45h-6.3a.42.42,0,0,1-.45-.45V48.7a.41.41,0,0,1,.45-.45Z"/><path class="cls-4" d="M140.1,57.94a.53.53,0,0,1-.49.81H137.9a.38.38,0,0,1-.35-.21l-1.56-3a.15.15,0,0,0-.12-.07h-.6a.45.45,0,0,0-.46.47v2.37a.45.45,0,0,1-.47.46h-1.68a.44.44,0,0,1-.46-.46V48.72a.45.45,0,0,1,.46-.47H136c2.67,0,3.75,1.14,3.75,3.6a3.35,3.35,0,0,1-1.14,2.94.16.16,0,0,0-.05.2Zm-4.83-7.11a.45.45,0,0,0-.46.47v1.11a.44.44,0,0,0,.46.46H136c.72,0,1.08-.09,1.08-1s-.36-1-1.08-1Z"/><path class="cls-4" d="M75.72,66.25a.4.4,0,0,1,.45.45v9.6a.41.41,0,0,1-.45.45H74.06a.41.41,0,0,1-.44-.45V66.7a.4.4,0,0,1,.44-.45Z"/><path class="cls-4" d="M81.22,66.25a.46.46,0,0,1,.48.41L82.76,71c0,.15.15.15.18,0L84,66.66a.46.46,0,0,1,.48-.41h3.1a.4.4,0,0,1,.45.45v9.6a.41.41,0,0,1-.45.45H85.91a.42.42,0,0,1-.45-.45V70.39c0-.1-.13-.12-.16,0l-1.46,6a.45.45,0,0,1-.49.39h-1a.46.46,0,0,1-.5-.39l-1.45-6c0-.11-.16-.09-.16,0V76.3a.41.41,0,0,1-.46.45H78.11a.4.4,0,0,1-.44-.45V66.7c0-.3.14-.45.44-.45Z"/><path class="cls-4" d="M96.82,76.24c0,.33-.15.51-.45.51H94.69a.4.4,0,0,1-.45-.45V75a.4.4,0,0,0-.45-.46H92.5a.41.41,0,0,0-.45.46v1.3a.4.4,0,0,1-.45.45H89.92c-.29,0-.45-.18-.45-.51V69.88c0-1.89.3-3.9,3.67-3.9s3.68,2,3.68,3.9Zm-2.58-6.36c0-.72-.11-1.08-1.1-1.08s-1.09.36-1.09,1.08v1.64a.41.41,0,0,0,.45.45h1.29a.42.42,0,0,0,.45-.47Z"/><path class="cls-4" d="M98.09,69.63c0-1,.21-3.65,3.77-3.65,3.15,0,3.67,2.07,3.75,3.24a.45.45,0,0,1-.39.5l-1.7.37c-.3.06-.46-.07-.49-.39-.06-.72-.32-1.14-1.17-1.14-1.11,0-1.19.71-1.19,1.86v2.16c0,1.16.08,1.86,1.19,1.86S103,73.74,103,73h-.87a.42.42,0,0,1-.45-.45v-1.2a.41.41,0,0,1,.45-.45h3a.4.4,0,0,1,.45.45v2c0,1-.21,3.64-3.76,3.64s-3.77-2.65-3.77-3.64Z"/><path class="cls-4" d="M113.69,66.25a.4.4,0,0,1,.45.45v1.68a.4.4,0,0,1-.45.45h-3.63a.41.41,0,0,0-.45.45v.48a.41.41,0,0,0,.45.45h2.33a.4.4,0,0,1,.45.45v1.68a.4.4,0,0,1-.45.45h-2.33a.41.41,0,0,0-.45.45v.48a.42.42,0,0,0,.45.45h3.63a.4.4,0,0,1,.45.45V76.3a.4.4,0,0,1-.45.45h-6.3a.42.42,0,0,1-.45-.45V66.7a.41.41,0,0,1,.45-.45Z"/><path class="cls-4" d="M184,4V121H4V4H184m1-1H3V122H185V3Z"/></svg>