<svg id="Layer_1" data-name="Layer 1" xmlns="http://www.w3.org/2000/svg" viewBox="0 0 188 125"><defs><style>.cls-1{fill:#e6e6e6;}.cls-2{fill:#fff;}</style></defs><title>placeholder</title><rect class="cls-1" width="188" height="125"/><path class="cls-2" d="M94,25.5a37,37,0,1,0,37,37A37,37,0,0,0,94,25.5Zm0,67.83A30.83,30.83,0,1,1,124.83,62.5,30.86,30.86,0,0,1,94,93.33Zm0-58A27.13,27.13,0,1,0,121.13,62.5,27.16,27.16,0,0,0,94,35.37Zm0,46.4a3.86,3.86,0,1,1,3.85-3.85A3.86,3.86,0,0,1,94,81.77Zm6-18.28c-2.79,3-2.92,4.67-2.89,6.72H91c0-4.55.06-6.55,4.42-10.69,1.76-1.68,3.15-3,3-5.62a4.08,4.08,0,0,0-4.2-3.78c-2.19,0-4.74,1.63-4.74,6.21H83.21c0-7.4,4.35-12.18,11.07-12.18a10.89,10.89,0,0,1,7.87,2.94,9.61,9.61,0,0,1,2.63,7.09C104.73,58.44,102.13,61.24,100.05,63.49Z"/></svg>